<svg xmlns="http://www.w3.org/2000/svg" xmlns:xlink="http://www.w3.org/1999/xlink" width="206" height="95" viewBox="0 0 206 95">
  <defs>
    <clipPath id="clip-logo-census">
      <rect width="206" height="95"/>
    </clipPath>
  </defs>
  <g id="logo-census" clip-path="url(#clip-logo-census)">
    <g id="Grupo_727" data-name="Grupo 727" transform="translate(-103 -27)">
      <g id="Grupo_726" data-name="Grupo 726">
        <g id="Grupo_694" data-name="Grupo 694">
          <path id="Trazado_819" data-name="Trazado 819" d="M134.479,72.965a12.949,12.949,0,0,1,4.168,1.39,1.276,1.276,0,0,1,.615.454,2.279,2.279,0,0,1,.187.828l.588,5.986c0,.106-.09.169-.268.187s-.285-.027-.32-.134a10,10,0,0,0-4.356-6.066,14.826,14.826,0,0,0-7.882-1.95,13.775,13.775,0,0,0-7.108,1.79,12.06,12.06,0,0,0-4.7,5.05,16.423,16.423,0,0,0-1.656,7.535,20.7,20.7,0,0,0,2.057,9.193,17.143,17.143,0,0,0,5.558,6.68,12.9,12.9,0,0,0,7.562,2.458,10.864,10.864,0,0,0,6.68-2.111,13.07,13.07,0,0,0,4.329-6.493c0-.107.071-.16.214-.16a.791.791,0,0,1,.293.053c.089.036.134.089.134.16l-.748,6.039a2.316,2.316,0,0,1-.241.828,1.535,1.535,0,0,1-.614.4,25.819,25.819,0,0,1-10.154,2.031,20.435,20.435,0,0,1-10.715-2.592,16.28,16.28,0,0,1-6.333-6.6,18.433,18.433,0,0,1-2.03-8.444,15.028,15.028,0,0,1,2.725-8.817,18.121,18.121,0,0,1,7.215-6.039,22.087,22.087,0,0,1,9.619-2.138A28.712,28.712,0,0,1,134.479,72.965Z" fill="#bd9f2d"/>
          <path id="Trazado_820" data-name="Trazado 820" d="M171.819,98.058a1.346,1.346,0,0,1,.376.051c.114.035.172.087.172.155a36.329,36.329,0,0,0-.616,6.795.693.693,0,0,1-.239.592,1.477,1.477,0,0,1-.855.181H144.029c-.093,0-.138-.1-.138-.309s.045-.309.138-.309a25.781,25.781,0,0,0,3.176-.153,1.627,1.627,0,0,0,.62-.1,27.693,27.693,0,0,0,.057-3.295V77.827a25.02,25.02,0,0,0-.057-3.269c-.079-.066-.207-.046-.322-.066a20.983,20.983,0,0,0-3.474-.217c-.093,0-.138-.1-.138-.309s.045-.309.138-.309h26.682c.41,0,.616.155.616.464l.136,6.332c0,.1-.114.163-.342.179s-.365-.025-.41-.128a5.614,5.614,0,0,0-2.189-4.247c-1.323-1.012-4.295-1.518-6.483-1.518h-4.172a15.882,15.882,0,0,0-3.522.282,2.483,2.483,0,0,0-1.573.979,3.911,3.911,0,0,0-.445,2.084V88.535h8.344a9.782,9.782,0,0,0,4.685-.824,2.964,2.964,0,0,0,1.4-2.78c0-.068.136-.1.409-.1s.411.035.411.1l-.069,4.17q0,1.494.069,2.265l.068,2.471c0,.069-.137.1-.41.1s-.41-.034-.41-.1a3.605,3.605,0,0,0-1.471-3.243,9.172,9.172,0,0,0-4.89-.979h-8.139v11.841a4.164,4.164,0,0,0,.411,2.111,2.268,2.268,0,0,0,1.5.926,16.262,16.262,0,0,0,3.419.257h5.471A8.479,8.479,0,0,0,168.6,103a8.572,8.572,0,0,0,2.941-4.839C171.546,98.093,171.637,98.058,171.819,98.058Z" fill="#bd9f2d"/>
          <path id="Trazado_821" data-name="Trazado 821" d="M207.411,73.966c0,.206-.049.309-.149.309a2.2,2.2,0,0,0-2.229,1.184,6.214,6.214,0,0,0-.947,3.861v27.129c0,.069-.083.12-.25.154s-.283.018-.349-.051L180.558,77.878l-.448-.514v22.857a6.217,6.217,0,0,0,.921,3.834A3.563,3.563,0,0,0,184,105.214q.15,0,.15.309t-.15.309q-1.245,0-1.894-.052l-2.492-.051-1.731.051q-.7.053-2.044.052c-.067,0-.1-.1-.1-.309s.032-.309.1-.309a3.617,3.617,0,0,0,3.041-1.159c.6-.772.086-2.05.086-3.834V76.128c-1.3-1.235-1.8-1.853-3.127-1.853-.1,0-.149-.1-.149-.309s.05-.309.149-.309l1.845.052a4.064,4.064,0,0,0,.834.051q1.095,0,1.793-.051c.466-.034.831-.052,1.1-.052a.779.779,0,0,1,.573.18,6.319,6.319,0,0,1,.573.8q.6.927,1.2,1.7l19.191,24.35V79.32a6.632,6.632,0,0,0-.873-3.861c-.581-.789-.742-1.184-2.1-1.184-.067,0-.1-.1-.1-.309s.033-.309.1-.309l1.944.052c1,.069,1,.1,1.631.1.6,0,.617-.034,1.681-.1l2.044-.052C207.362,73.657,207.411,73.76,207.411,73.966Z" fill="#bd9f2d"/>
          <path id="Trazado_822" data-name="Trazado 822" d="M217.287,83.549a11.188,11.188,0,0,0,3.136,2.5q1.84,1.005,5.18,2.548,3.545,1.6,5.522,2.677a11.629,11.629,0,0,1,3.374,2.754,6.032,6.032,0,0,1,1.4,3.99,6.914,6.914,0,0,1-1.636,4.479,10.811,10.811,0,0,1-4.806,3.166,22.205,22.205,0,0,1-7.6,1.158,24.945,24.945,0,0,1-9.612-1.8.858.858,0,0,1-.443-.36,2.287,2.287,0,0,1-.171-.617l-.886-7c-.045-.136.057-.223.307-.258s.4.019.443.155a13.667,13.667,0,0,0,4.056,6.383A11.3,11.3,0,0,0,223.422,106a10.976,10.976,0,0,0,5.761-1.417,4.866,4.866,0,0,0,2.351-4.5,6.215,6.215,0,0,0-1.364-4.015,11.472,11.472,0,0,0-3.3-2.805q-1.944-1.107-5.283-2.6-3.273-1.493-5.147-2.574a10.909,10.909,0,0,1-3.171-2.728,6.327,6.327,0,0,1,.512-8.263,11.123,11.123,0,0,1,4.7-2.728,20.681,20.681,0,0,1,6.169-.9,26.631,26.631,0,0,1,7.976,1.235q1.021.259,1.023.876l.477,5.919c0,.138-.114.206-.341.206s-.364-.068-.409-.206a9.553,9.553,0,0,0-2.931-4.967q-2.388-2.291-6.885-2.291-3.819,0-5.693,1.673a5.333,5.333,0,0,0-1.874,4.144A5.168,5.168,0,0,0,217.287,83.549Z" fill="#bd9f2d"/>
          <path id="Trazado_823" data-name="Trazado 823" d="M280.054,83.549a11.189,11.189,0,0,0,3.136,2.5q1.84,1.005,5.181,2.548,3.545,1.6,5.522,2.677a11.642,11.642,0,0,1,3.374,2.754,6.032,6.032,0,0,1,1.4,3.99,6.915,6.915,0,0,1-1.637,4.479,10.8,10.8,0,0,1-4.805,3.166,22.213,22.213,0,0,1-7.6,1.158,24.946,24.946,0,0,1-9.613-1.8.859.859,0,0,1-.442-.36,2.287,2.287,0,0,1-.171-.617l-.886-7c-.046-.136.056-.223.306-.258s.4.019.443.155a13.661,13.661,0,0,0,4.057,6.383A11.3,11.3,0,0,0,286.189,106a10.972,10.972,0,0,0,5.761-1.417,4.865,4.865,0,0,0,2.352-4.5,6.221,6.221,0,0,0-1.364-4.015,11.463,11.463,0,0,0-3.306-2.805q-1.942-1.107-5.283-2.6-3.271-1.493-5.147-2.574a10.918,10.918,0,0,1-3.17-2.728,6.329,6.329,0,0,1,.511-8.263,11.123,11.123,0,0,1,4.7-2.728,20.688,20.688,0,0,1,6.17-.9,26.62,26.62,0,0,1,7.975,1.235q1.023.259,1.023.876l.477,5.919c0,.138-.114.206-.341.206s-.363-.068-.409-.206a9.54,9.54,0,0,0-2.931-4.967q-2.387-2.291-6.885-2.291-3.819,0-5.692,1.673a5.334,5.334,0,0,0-1.875,4.144A5.168,5.168,0,0,0,280.054,83.549Z" fill="#bd9f2d"/>
          <path id="Trazado_824" data-name="Trazado 824" d="M270.076,73.657h-8.209c-.1,0-.155.1-.155.309s.051.309.155.309c2.985,0,3.667,1.682,3.667,5.045V93.991q0,5.15-2.574,8.057a9.123,9.123,0,0,1-7.208,2.908,9.585,9.585,0,0,1-7.7-3.217Q245.3,98.522,245.3,92.5V77.93h-.018c-.049-2.433-.038-3.654,2.3-3.654.069,0,.1-.1.1-.309s-.034-.309-.1-.309h-8.208q-.156,0-.156.309t.156.309c2.5,0,2.625,1.187,2.6,3.553h-.015V94.3a12.81,12.81,0,0,0,1.571,6.46,10.66,10.66,0,0,0,4.427,4.247,14.184,14.184,0,0,0,6.666,1.493,11.913,11.913,0,0,0,8.855-3.32q3.294-3.319,3.294-9.24V79.32c0-3.363.561-5.045,3.307-5.045.069,0,.1-.1.1-.309S270.145,73.657,270.076,73.657Z" fill="#bd9f2d"/>
        </g>
        <g id="Grupo_711" data-name="Grupo 711">
          <g id="Grupo_695" data-name="Grupo 695">
            <rect id="Rectángulo_496" data-name="Rectángulo 496" width="18.781" height="3.478" transform="translate(161.127 38.186)" fill="#bd9f2d"/>
          </g>
          <g id="Grupo_696" data-name="Grupo 696">
            <rect id="Rectángulo_497" data-name="Rectángulo 497" width="16.794" height="3.478" transform="translate(163.114 32.702)" fill="#bd9f2d"/>
          </g>
          <g id="Grupo_697" data-name="Grupo 697">
            <rect id="Rectángulo_498" data-name="Rectángulo 498" width="18.781" height="3.478" transform="translate(161.127 27.219)" fill="#bd9f2d"/>
          </g>
          <g id="Grupo_698" data-name="Grupo 698">
            <rect id="Rectángulo_499" data-name="Rectángulo 499" width="15.824" height="3.478" transform="translate(232.143 38.012)" fill="#bd9f2d"/>
          </g>
          <g id="Grupo_699" data-name="Grupo 699">
            <rect id="Rectángulo_500" data-name="Rectángulo 500" width="14.149" height="3.478" transform="translate(232.143 32.529)" fill="#bd9f2d"/>
          </g>
          <g id="Grupo_700" data-name="Grupo 700">
            <rect id="Rectángulo_501" data-name="Rectángulo 501" width="15.824" height="3.478" transform="translate(232.143 27.045)" fill="#bd9f2d"/>
          </g>
          <g id="Grupo_701" data-name="Grupo 701">
            <rect id="Rectángulo_502" data-name="Rectángulo 502" width="3.478" height="14.607" transform="translate(181.356 27.219)" fill="#bd9f2d"/>
          </g>
          <g id="Grupo_702" data-name="Grupo 702">
            <rect id="Rectángulo_503" data-name="Rectángulo 503" width="3.478" height="12.706" transform="translate(186.652 27.219)" fill="#bd9f2d"/>
          </g>
          <g id="Grupo_703" data-name="Grupo 703">
            <rect id="Rectángulo_504" data-name="Rectángulo 504" width="3.478" height="12.706" transform="translate(191.947 28.957)" fill="#bd9f2d"/>
          </g>
          <g id="Grupo_704" data-name="Grupo 704">
            <rect id="Rectángulo_505" data-name="Rectángulo 505" width="3.478" height="14.607" transform="translate(197.242 27.219)" fill="#bd9f2d"/>
          </g>
          <g id="Grupo_705" data-name="Grupo 705">
            <rect id="Rectángulo_506" data-name="Rectángulo 506" width="12.868" height="3.478" transform="translate(202.348 27.219)" fill="#bd9f2d"/>
          </g>
          <g id="Grupo_706" data-name="Grupo 706">
            <rect id="Rectángulo_507" data-name="Rectángulo 507" width="8.347" height="3.478" transform="translate(205.13 32.702)" fill="#bd9f2d"/>
          </g>
          <g id="Grupo_707" data-name="Grupo 707">
            <rect id="Rectángulo_508" data-name="Rectángulo 508" width="7.904" height="3.478" transform="translate(202.348 38.186)" fill="#bd9f2d"/>
          </g>
          <g id="Grupo_708" data-name="Grupo 708">
            <rect id="Rectángulo_509" data-name="Rectángulo 509" width="3.478" height="14.445" transform="translate(216.164 27.219)" fill="#bd9f2d"/>
          </g>
          <g id="Grupo_709" data-name="Grupo 709">
            <rect id="Rectángulo_510" data-name="Rectángulo 510" width="3.478" height="14.445" transform="translate(226.715 27.219)" fill="#bd9f2d"/>
          </g>
          <g id="Grupo_710" data-name="Grupo 710">
            <rect id="Rectángulo_511" data-name="Rectángulo 511" width="3.478" height="11.291" transform="translate(221.497 27.219)" fill="#bd9f2d"/>
          </g>
        </g>
        <g id="Grupo_723" data-name="Grupo 723">
          <g id="Grupo_712" data-name="Grupo 712">
            <rect id="Rectángulo_512" data-name="Rectángulo 512" width="3.478" height="20.06" transform="translate(173.052 44.394)" fill="#bd9f2d"/>
          </g>
          <g id="Grupo_713" data-name="Grupo 713">
            <rect id="Rectángulo_513" data-name="Rectángulo 513" width="3.478" height="20.06" transform="translate(232.564 44.394)" fill="#bd9f2d"/>
          </g>
          <g id="Grupo_714" data-name="Grupo 714">
            <rect id="Rectángulo_514" data-name="Rectángulo 514" width="3.478" height="20.06" transform="translate(220.661 44.394)" fill="#bd9f2d"/>
          </g>
          <g id="Grupo_715" data-name="Grupo 715">
            <rect id="Rectángulo_515" data-name="Rectángulo 515" width="3.478" height="20.06" transform="translate(226.612 44.394)" fill="#bd9f2d"/>
          </g>
          <g id="Grupo_716" data-name="Grupo 716">
            <rect id="Rectángulo_516" data-name="Rectángulo 516" width="3.478" height="20.06" transform="translate(214.71 44.394)" fill="#bd9f2d"/>
          </g>
          <g id="Grupo_717" data-name="Grupo 717">
            <rect id="Rectángulo_517" data-name="Rectángulo 517" width="3.478" height="20.06" transform="translate(208.759 44.394)" fill="#bd9f2d"/>
          </g>
          <g id="Grupo_718" data-name="Grupo 718">
            <rect id="Rectángulo_518" data-name="Rectángulo 518" width="3.478" height="20.06" transform="translate(202.808 44.394)" fill="#bd9f2d"/>
          </g>
          <g id="Grupo_719" data-name="Grupo 719">
            <rect id="Rectángulo_519" data-name="Rectángulo 519" width="3.478" height="20.06" transform="translate(196.857 44.394)" fill="#bd9f2d"/>
          </g>
          <g id="Grupo_720" data-name="Grupo 720">
            <rect id="Rectángulo_520" data-name="Rectángulo 520" width="3.478" height="20.06" transform="translate(190.906 44.394)" fill="#bd9f2d"/>
          </g>
          <g id="Grupo_721" data-name="Grupo 721">
            <rect id="Rectángulo_521" data-name="Rectángulo 521" width="3.478" height="20.06" transform="translate(184.954 44.394)" fill="#bd9f2d"/>
          </g>
          <g id="Grupo_722" data-name="Grupo 722">
            <rect id="Rectángulo_522" data-name="Rectángulo 522" width="3.478" height="20.06" transform="translate(179.003 44.394)" fill="#bd9f2d"/>
          </g>
        </g>
        <g id="Grupo_724" data-name="Grupo 724">
          <path id="Trazado_825" data-name="Trazado 825" d="M110.483,121.888h-.663l2.567-5.94h.588l2.55,5.94h-.671l-.655-1.561h-3.07Zm.873-2.114h2.617l-1.309-3.155Z" fill="#bd9f2d"/>
          <path id="Trazado_826" data-name="Trazado 826" d="M120.952,116.9a1.444,1.444,0,0,0-.494-.432,1.517,1.517,0,0,0-.73-.164,1.586,1.586,0,0,0-.445.067,1.3,1.3,0,0,0-.411.206,1.058,1.058,0,0,0-.3.348,1.034,1.034,0,0,0-.113.5.911.911,0,0,0,.109.47,1.026,1.026,0,0,0,.288.314,1.675,1.675,0,0,0,.41.214q.231.084.481.168c.207.067.414.14.624.218a2.217,2.217,0,0,1,.564.306,1.475,1.475,0,0,1,.41.478,1.514,1.514,0,0,1,.159.734,1.642,1.642,0,0,1-.169.768,1.623,1.623,0,0,1-.441.533,1.838,1.838,0,0,1-.619.31,2.511,2.511,0,0,1-.7.1,2.646,2.646,0,0,1-.537-.055,2.391,2.391,0,0,1-.512-.164,2.065,2.065,0,0,1-.453-.276,2.015,2.015,0,0,1-.369-.386l.52-.386a1.6,1.6,0,0,0,.541.533,1.537,1.537,0,0,0,.818.213,1.573,1.573,0,0,0,.462-.071,1.289,1.289,0,0,0,.423-.218,1.219,1.219,0,0,0,.311-.361,1,1,0,0,0,.121-.5,1.013,1.013,0,0,0-.121-.516,1.09,1.09,0,0,0-.323-.343,1.938,1.938,0,0,0-.462-.231c-.173-.062-.355-.123-.545-.185s-.389-.131-.579-.209a1.979,1.979,0,0,1-.512-.307,1.445,1.445,0,0,1-.365-.465,1.515,1.515,0,0,1-.138-.68,1.5,1.5,0,0,1,.172-.738,1.553,1.553,0,0,1,.449-.512,1.862,1.862,0,0,1,.612-.293,2.478,2.478,0,0,1,.663-.093,2.294,2.294,0,0,1,1.032.214,1.78,1.78,0,0,1,.646.508Z" fill="#bd9f2d"/>
          <path id="Trazado_827" data-name="Trazado 827" d="M125.088,121.351h3.179v.537h-3.783v-5.94h3.683v.537h-3.079v2.039h2.877v.537h-2.877Z" fill="#bd9f2d"/>
          <path id="Trazado_828" data-name="Trazado 828" d="M134.005,116.9a1.438,1.438,0,0,0-.5-.432,1.51,1.51,0,0,0-.729-.164,1.586,1.586,0,0,0-.445.067,1.3,1.3,0,0,0-.411.206,1.058,1.058,0,0,0-.3.348,1.034,1.034,0,0,0-.113.5.911.911,0,0,0,.109.47,1.013,1.013,0,0,0,.288.314,1.675,1.675,0,0,0,.41.214q.231.084.481.168c.207.067.414.14.624.218a2.217,2.217,0,0,1,.564.306,1.487,1.487,0,0,1,.41.478,1.514,1.514,0,0,1,.159.734,1.579,1.579,0,0,1-.61,1.3,1.848,1.848,0,0,1-.619.31,2.512,2.512,0,0,1-.7.1,2.643,2.643,0,0,1-.536-.055,2.391,2.391,0,0,1-.512-.164,2.065,2.065,0,0,1-.453-.276,2.015,2.015,0,0,1-.369-.386l.52-.386a1.6,1.6,0,0,0,.541.533,1.536,1.536,0,0,0,.818.213,1.562,1.562,0,0,0,.461-.071,1.284,1.284,0,0,0,.424-.218,1.2,1.2,0,0,0,.31-.361.989.989,0,0,0,.122-.5,1,1,0,0,0-.122-.516,1.068,1.068,0,0,0-.323-.343,1.93,1.93,0,0,0-.461-.231c-.173-.062-.355-.123-.545-.185s-.389-.131-.579-.209a1.979,1.979,0,0,1-.512-.307,1.445,1.445,0,0,1-.365-.465,1.515,1.515,0,0,1-.138-.68,1.5,1.5,0,0,1,.172-.738,1.542,1.542,0,0,1,.449-.512,1.862,1.862,0,0,1,.612-.293,2.478,2.478,0,0,1,.663-.093,2.3,2.3,0,0,1,1.032.214,1.767,1.767,0,0,1,.645.508Z" fill="#bd9f2d"/>
          <path id="Trazado_829" data-name="Trazado 829" d="M143.409,118.918a3.243,3.243,0,0,1-.235,1.25,2.944,2.944,0,0,1-1.632,1.636,3.329,3.329,0,0,1-2.457,0,2.944,2.944,0,0,1-1.632-1.636,3.442,3.442,0,0,1,0-2.5,2.944,2.944,0,0,1,1.632-1.636,3.329,3.329,0,0,1,2.457,0,2.944,2.944,0,0,1,1.632,1.636A3.247,3.247,0,0,1,143.409,118.918Zm-.638,0a2.933,2.933,0,0,0-.167-.988,2.459,2.459,0,0,0-.487-.825,2.331,2.331,0,0,0-.776-.565,2.619,2.619,0,0,0-2.055,0,2.341,2.341,0,0,0-.776.565,2.459,2.459,0,0,0-.487.825,3.009,3.009,0,0,0,0,1.977,2.417,2.417,0,0,0,.487.82,2.362,2.362,0,0,0,.776.562,2.63,2.63,0,0,0,2.055,0,2.351,2.351,0,0,0,.776-.562,2.417,2.417,0,0,0,.487-.82A2.935,2.935,0,0,0,142.771,118.922Z" fill="#bd9f2d"/>
          <path id="Trazado_830" data-name="Trazado 830" d="M146.949,121.888h-.6v-5.94h1.745a3.68,3.68,0,0,1,.809.084,1.825,1.825,0,0,1,.646.273,1.285,1.285,0,0,1,.424.491,1.631,1.631,0,0,1,.151.738,1.458,1.458,0,0,1-.436,1.061,1.529,1.529,0,0,1-.478.315,2.116,2.116,0,0,1-.6.151l1.736,2.827H149.6l-1.644-2.777h-1.007Zm0-3.3H148a2.015,2.015,0,0,0,1.124-.264.892.892,0,0,0,.394-.793,1.035,1.035,0,0,0-.109-.495.894.894,0,0,0-.3-.327,1.371,1.371,0,0,0-.47-.185,2.963,2.963,0,0,0-.612-.059h-1.074Z" fill="#bd9f2d"/>
          <path id="Trazado_831" data-name="Trazado 831" d="M153.652,121.351h3.179v.537h-3.783v-5.94h3.682v.537h-3.078v2.039h2.877v.537h-2.877Z" fill="#bd9f2d"/>
          <path id="Trazado_832" data-name="Trazado 832" d="M162.569,116.9a1.456,1.456,0,0,0-.495-.432,1.514,1.514,0,0,0-.73-.164,1.585,1.585,0,0,0-.444.067,1.306,1.306,0,0,0-.412.206,1.055,1.055,0,0,0-.3.348,1.022,1.022,0,0,0-.114.5.921.921,0,0,0,.109.47,1.029,1.029,0,0,0,.289.314,1.657,1.657,0,0,0,.41.214c.153.056.314.112.481.168q.309.1.623.218a2.24,2.24,0,0,1,.565.306,1.487,1.487,0,0,1,.41.478,1.525,1.525,0,0,1,.159.734,1.579,1.579,0,0,1-.61,1.3,1.848,1.848,0,0,1-.619.31,2.518,2.518,0,0,1-.7.1,2.646,2.646,0,0,1-.537-.055,2.383,2.383,0,0,1-.511-.164,2.047,2.047,0,0,1-.822-.662l.52-.386a1.587,1.587,0,0,0,.541.533,1.534,1.534,0,0,0,.818.213,1.567,1.567,0,0,0,.461-.071,1.284,1.284,0,0,0,.424-.218,1.2,1.2,0,0,0,.31-.361.989.989,0,0,0,.122-.5,1,1,0,0,0-.122-.516,1.079,1.079,0,0,0-.323-.343,1.93,1.93,0,0,0-.461-.231c-.174-.062-.355-.123-.546-.185s-.388-.131-.579-.209a1.973,1.973,0,0,1-.511-.307,1.432,1.432,0,0,1-.365-.465,1.514,1.514,0,0,1-.139-.68,1.5,1.5,0,0,1,.173-.738,1.55,1.55,0,0,1,.448-.512,1.877,1.877,0,0,1,.613-.293,2.465,2.465,0,0,1,.662-.093,2.294,2.294,0,0,1,1.032.214,1.772,1.772,0,0,1,.646.508Z" fill="#bd9f2d"/>
          <path id="Trazado_833" data-name="Trazado 833" d="M170.48,121.351h2.768v.537h-3.373v-5.94h.6Z" fill="#bd9f2d"/>
          <path id="Trazado_834" data-name="Trazado 834" d="M176.436,121.351h3.179v.537h-3.783v-5.94h3.682v.537h-3.078v2.039h2.877v.537h-2.877Z" fill="#bd9f2d"/>
          <path id="Trazado_835" data-name="Trazado 835" d="M186.981,117.022a2.166,2.166,0,0,0-.739-.507,2.491,2.491,0,0,0-.981-.181,2.437,2.437,0,0,0-1.028.21,2.341,2.341,0,0,0-.776.565,2.536,2.536,0,0,0-.491.825,2.943,2.943,0,0,0,0,1.977,2.492,2.492,0,0,0,.491.82,2.362,2.362,0,0,0,.776.562,2.453,2.453,0,0,0,1.028.209,3.689,3.689,0,0,0,.922-.109,2.347,2.347,0,0,0,.68-.277v-1.8h-1.384v-.537h1.988v2.683a3.838,3.838,0,0,1-1.049.438,4.718,4.718,0,0,1-1.165.143,3.239,3.239,0,0,1-1.242-.235,2.893,2.893,0,0,1-1.623-1.636,3.3,3.3,0,0,1-.231-1.25,3.247,3.247,0,0,1,.235-1.25,2.944,2.944,0,0,1,1.632-1.636,3.184,3.184,0,0,1,1.229-.235,3.306,3.306,0,0,1,1.241.214,2.672,2.672,0,0,1,.906.592Z" fill="#bd9f2d"/>
          <path id="Trazado_836" data-name="Trazado 836" d="M190.646,121.888h-.663l2.567-5.94h.588l2.55,5.94h-.671l-.655-1.561h-3.07Zm.873-2.114h2.617l-1.309-3.155Z" fill="#bd9f2d"/>
          <path id="Trazado_837" data-name="Trazado 837" d="M198.842,121.351h2.768v.537h-3.372v-5.94h.6Z" fill="#bd9f2d"/>
          <path id="Trazado_838" data-name="Trazado 838" d="M204.8,121.351h3.179v.537h-3.783v-5.94h3.683v.537H204.8v2.039h2.877v.537H204.8Z" fill="#bd9f2d"/>
          <path id="Trazado_839" data-name="Trazado 839" d="M213.715,116.9a1.438,1.438,0,0,0-.495-.432,1.511,1.511,0,0,0-.73-.164,1.585,1.585,0,0,0-.444.067,1.3,1.3,0,0,0-.411.206,1.058,1.058,0,0,0-.3.348,1.022,1.022,0,0,0-.113.5.911.911,0,0,0,.109.47,1.014,1.014,0,0,0,.288.314,1.675,1.675,0,0,0,.41.214q.231.084.481.168c.207.067.414.14.623.218a2.206,2.206,0,0,1,.565.306,1.487,1.487,0,0,1,.41.478,1.514,1.514,0,0,1,.159.734,1.579,1.579,0,0,1-.61,1.3,1.848,1.848,0,0,1-.619.31,2.512,2.512,0,0,1-.7.1,2.643,2.643,0,0,1-.536-.055,2.391,2.391,0,0,1-.512-.164,2.065,2.065,0,0,1-.453-.276,2.015,2.015,0,0,1-.369-.386l.52-.386a1.6,1.6,0,0,0,.541.533,1.537,1.537,0,0,0,.818.213,1.562,1.562,0,0,0,.461-.071,1.284,1.284,0,0,0,.424-.218,1.2,1.2,0,0,0,.31-.361.989.989,0,0,0,.122-.5,1,1,0,0,0-.122-.516,1.068,1.068,0,0,0-.323-.343,1.93,1.93,0,0,0-.461-.231c-.173-.062-.355-.123-.545-.185s-.389-.131-.579-.209a1.979,1.979,0,0,1-.512-.307,1.445,1.445,0,0,1-.365-.465,1.515,1.515,0,0,1-.138-.68,1.5,1.5,0,0,1,.172-.738,1.542,1.542,0,0,1,.449-.512,1.862,1.862,0,0,1,.612-.293,2.478,2.478,0,0,1,.663-.093,2.3,2.3,0,0,1,1.032.214,1.767,1.767,0,0,1,.645.508Z" fill="#bd9f2d"/>
          <path id="Trazado_840" data-name="Trazado 840" d="M222.859,121.888h-.6v-2.559l-2.224-3.381h.755l1.787,2.878,1.8-2.878h.7l-2.223,3.381Z" fill="#bd9f2d"/>
          <path id="Trazado_841" data-name="Trazado 841" d="M232.825,121.888h-.6v-5.4h-1.988v-.537h4.581v.537h-1.989Z" fill="#bd9f2d"/>
          <path id="Trazado_842" data-name="Trazado 842" d="M237.985,121.888h-.6v-5.94h1.744a3.689,3.689,0,0,1,.81.084,1.825,1.825,0,0,1,.646.273,1.285,1.285,0,0,1,.424.491,1.645,1.645,0,0,1,.151.738,1.478,1.478,0,0,1-.118.6,1.443,1.443,0,0,1-.319.465,1.507,1.507,0,0,1-.478.315,2.108,2.108,0,0,1-.6.151l1.736,2.827h-.738l-1.644-2.777h-1.006Zm0-3.3h1.048a2.013,2.013,0,0,0,1.124-.264.892.892,0,0,0,.394-.793,1.035,1.035,0,0,0-.108-.495.9.9,0,0,0-.3-.327,1.38,1.38,0,0,0-.47-.185,2.973,2.973,0,0,0-.613-.059h-1.073Z" fill="#bd9f2d"/>
          <path id="Trazado_843" data-name="Trazado 843" d="M244.687,121.888h-.6v-5.94h.6Z" fill="#bd9f2d"/>
          <path id="Trazado_844" data-name="Trazado 844" d="M247.942,115.948h1.77a3.325,3.325,0,0,1,.68.072,1.851,1.851,0,0,1,.616.243,1.345,1.345,0,0,1,.445.466,1.447,1.447,0,0,1,.172.738,1.249,1.249,0,0,1-.287.818,1.349,1.349,0,0,1-.767.457v.017a1.564,1.564,0,0,1,.958.449,1.4,1.4,0,0,1,.381,1.035,1.455,1.455,0,0,1-.6,1.2,2.111,2.111,0,0,1-.694.331,3.323,3.323,0,0,1-.921.118h-1.758Zm.6,2.6h1.216a1.965,1.965,0,0,0,.441-.051,1.223,1.223,0,0,0,.407-.171.915.915,0,0,0,.3-.323.993.993,0,0,0,.113-.495.954.954,0,0,0-.113-.483.924.924,0,0,0-.306-.322,1.3,1.3,0,0,0-.453-.181,2.717,2.717,0,0,0-.554-.055h-1.048Zm0,2.818h1.124a3.018,3.018,0,0,0,.625-.062,1.612,1.612,0,0,0,.52-.2,1.09,1.09,0,0,0,.357-.361,1.15,1.15,0,0,0-.265-1.41,1.892,1.892,0,0,0-1.128-.289h-1.233Z" fill="#bd9f2d"/>
          <path id="Trazado_845" data-name="Trazado 845" d="M257.144,122.039a2.306,2.306,0,0,1-1.1-.231,1.963,1.963,0,0,1-.679-.583,2.136,2.136,0,0,1-.348-.768,3.427,3.427,0,0,1-.1-.784v-3.725h.6v3.658a2.9,2.9,0,0,0,.084.7,1.742,1.742,0,0,0,.273.6,1.4,1.4,0,0,0,.5.428,1.859,1.859,0,0,0,1.527,0,1.408,1.408,0,0,0,.5-.428,1.743,1.743,0,0,0,.273-.6,2.948,2.948,0,0,0,.083-.7v-3.658h.6v3.725a3.48,3.48,0,0,1-.1.784,2.136,2.136,0,0,1-.348.768,1.954,1.954,0,0,1-.684.583A2.308,2.308,0,0,1,257.144,122.039Z" fill="#bd9f2d"/>
          <path id="Trazado_846" data-name="Trazado 846" d="M264.493,121.888h-.6v-5.4H261.9v-.537h4.58v.537h-1.988Z" fill="#bd9f2d"/>
          <path id="Trazado_847" data-name="Trazado 847" d="M268.5,121.888h-.662l2.567-5.94h.587l2.55,5.94h-.671l-.654-1.561h-3.07Zm.873-2.114h2.617l-1.308-3.155Z" fill="#bd9f2d"/>
          <path id="Trazado_848" data-name="Trazado 848" d="M276.7,121.888h-.6v-5.94h1.745a3.686,3.686,0,0,1,.809.084,1.825,1.825,0,0,1,.646.273,1.285,1.285,0,0,1,.424.491,1.645,1.645,0,0,1,.151.738,1.478,1.478,0,0,1-.118.6,1.444,1.444,0,0,1-.319.465,1.507,1.507,0,0,1-.478.315,2.108,2.108,0,0,1-.6.151l1.737,2.827h-.739l-1.644-2.777H276.7Zm0-3.3h1.048a2.019,2.019,0,0,0,1.125-.264.894.894,0,0,0,.394-.793,1.035,1.035,0,0,0-.109-.495.9.9,0,0,0-.3-.327,1.379,1.379,0,0,0-.47-.185,2.973,2.973,0,0,0-.613-.059H276.7Z" fill="#bd9f2d"/>
          <path id="Trazado_849" data-name="Trazado 849" d="M283.4,121.888h-.6v-5.94h.6Z" fill="#bd9f2d"/>
          <path id="Trazado_850" data-name="Trazado 850" d="M292.528,118.918a3.243,3.243,0,0,1-.235,1.25,2.977,2.977,0,0,1-.65.986,3.018,3.018,0,0,1-.981.65,3.331,3.331,0,0,1-2.458,0,2.944,2.944,0,0,1-1.632-1.636,3.442,3.442,0,0,1,0-2.5,2.944,2.944,0,0,1,1.632-1.636,3.331,3.331,0,0,1,2.458,0,2.947,2.947,0,0,1,1.631,1.636A3.247,3.247,0,0,1,292.528,118.918Zm-.637,0a2.909,2.909,0,0,0-.168-.988,2.473,2.473,0,0,0-.486-.825,2.351,2.351,0,0,0-.776-.565,2.621,2.621,0,0,0-2.056,0,2.341,2.341,0,0,0-.776.565,2.473,2.473,0,0,0-.486.825,2.992,2.992,0,0,0,0,1.977,2.431,2.431,0,0,0,.486.82,2.362,2.362,0,0,0,.776.562,2.633,2.633,0,0,0,2.056,0,2.372,2.372,0,0,0,.776-.562,2.431,2.431,0,0,0,.486-.82A2.91,2.91,0,0,0,291.891,118.922Z" fill="#bd9f2d"/>
          <path id="Trazado_851" data-name="Trazado 851" d="M298.341,116.9a1.443,1.443,0,0,0-.494-.432,1.517,1.517,0,0,0-.73-.164,1.586,1.586,0,0,0-.445.067,1.3,1.3,0,0,0-.411.206,1.058,1.058,0,0,0-.3.348,1.033,1.033,0,0,0-.113.5.911.911,0,0,0,.109.47,1.025,1.025,0,0,0,.288.314,1.675,1.675,0,0,0,.41.214q.231.084.481.168.311.1.624.218a2.217,2.217,0,0,1,.564.306,1.462,1.462,0,0,1,.41.478,1.514,1.514,0,0,1,.159.734,1.572,1.572,0,0,1-.61,1.3,1.838,1.838,0,0,1-.619.31,2.511,2.511,0,0,1-.7.1,2.646,2.646,0,0,1-.537-.055,2.392,2.392,0,0,1-.512-.164,2.066,2.066,0,0,1-.453-.276,2.015,2.015,0,0,1-.369-.386l.52-.386a1.6,1.6,0,0,0,.541.533,1.537,1.537,0,0,0,.818.213,1.573,1.573,0,0,0,.462-.071,1.289,1.289,0,0,0,.423-.218,1.2,1.2,0,0,0,.311-.361.989.989,0,0,0,.121-.5,1,1,0,0,0-.121-.516,1.079,1.079,0,0,0-.323-.343,1.937,1.937,0,0,0-.462-.231c-.173-.062-.355-.123-.545-.185s-.389-.131-.579-.209a1.98,1.98,0,0,1-.512-.307,1.445,1.445,0,0,1-.365-.465,1.515,1.515,0,0,1-.138-.68,1.5,1.5,0,0,1,.172-.738,1.564,1.564,0,0,1,.449-.512,1.862,1.862,0,0,1,.612-.293,2.478,2.478,0,0,1,.663-.093,2.294,2.294,0,0,1,1.032.214,1.78,1.78,0,0,1,.646.508Z" fill="#bd9f2d"/>
        </g>
        <g id="Grupo_725" data-name="Grupo 725">
          <rect id="Rectángulo_523" data-name="Rectángulo 523" width="205.384" height="0.417" transform="translate(103.388 111.137)" fill="#bd9f2d"/>
        </g>
      </g>
    </g>
  </g>
</svg>
